<svg xmlns="http://www.w3.org/2000/svg" width="42.492" height="34.551" viewBox="0 0 42.492 34.551"><defs><style>.a{fill:#f0f0f0;}</style></defs><g transform="translate(-154.1 429.951)"><g transform="translate(79 -528.351)"><g transform="translate(75.1 98.4)"><path class="a" d="M88.448,132.951c16.034,0,24.808-13.3,24.808-24.808,0-.374,0-.748-.017-1.122a17.763,17.763,0,0,0,4.353-4.523,17.671,17.671,0,0,1-5.016,1.377,8.772,8.772,0,0,0,3.843-4.829,17.344,17.344,0,0,1-5.543,2.108,8.721,8.721,0,0,0-15.082,5.968,9.637,9.637,0,0,0,.221,1.989A24.759,24.759,0,0,1,78.042,100a8.754,8.754,0,0,0,2.7,11.647,8.819,8.819,0,0,1-3.945-1.088v.119a8.738,8.738,0,0,0,6.988,8.553,8.77,8.77,0,0,1-3.928.153,8.719,8.719,0,0,0,8.145,6.053,17.488,17.488,0,0,1-10.831,3.741,16.778,16.778,0,0,1-2.074-.119,24.8,24.8,0,0,0,13.348,3.894" transform="translate(-75.1 -98.4)"/></g></g></g></svg>